<?xml version="1.0" standalone="no"?>
<!DOCTYPE svg PUBLIC "-//W3C//DTD SVG 20010904//EN"
 "http://www.w3.org/TR/2001/REC-SVG-20010904/DTD/svg10.dtd">
<svg version="1.0" xmlns="http://www.w3.org/2000/svg"
 width="512.000000pt" height="512.000000pt" viewBox="0 0 512.000000 512.000000"
 preserveAspectRatio="xMidYMid meet">
<metadata>
Created by potrace 1.11, written by Peter Selinger 2001-2013
</metadata>
<g transform="translate(0.000000,512.000000) scale(0.100000,-0.100000)"
fill="#000000" stroke="none">
<path d="M2290 4795 c0 -152 0 -155 -22 -159 -13 -3 -61 -13 -108 -22 -207
-40 -503 -164 -690 -289 -414 -278 -724 -712 -855 -1198 -92 -338 -97 -738
-15 -1073 173 -707 683 -1272 1344 -1489 72 -24 169 -50 216 -59 47 -9 95 -19
108 -22 22 -4 22 -7 22 -159 l0 -155 270 0 270 0 0 155 c0 152 0 155 23 159
12 3 60 13 107 22 207 40 503 164 690 289 878 589 1183 1770 704 2728 -246
491 -675 867 -1178 1032 -72 24 -169 50 -216 59 -47 9 -95 19 -107 22 -23 4
-23 7 -23 159 l0 155 -270 0 -270 0 0 -155z m541 -705 c527 -108 953 -491
1128 -1015 62 -186 75 -278 75 -515 0 -237 -13 -329 -75 -515 -152 -456 -511
-822 -949 -969 -152 -50 -272 -69 -450 -69 -178 0 -285 16 -446 69 -438 143
-800 511 -953 969 -62 186 -75 278 -75 515 0 186 3 229 22 320 116 536 456
949 939 1141 93 37 255 77 360 89 110 12 311 3 424 -20z"/>
<path d="M1855 3213 c-328 -70 -570 -334 -592 -645 l-6 -78 266 0 267 0 6 28
c25 119 108 175 255 174 85 0 164 -33 204 -86 24 -31 28 -48 36 -148 14 -182
69 -327 168 -446 177 -213 498 -315 796 -253 335 69 583 336 603 649 l5 82
-266 0 -267 0 -6 -41 c-17 -104 -111 -169 -245 -169 -157 0 -248 77 -249 210
0 78 -17 174 -45 253 -83 240 -303 421 -572 473 -95 18 -268 17 -358 -3z"/>
</g>
</svg>
