<svg width="164" height="38" viewBox="0 0 164 38" fill="none" xmlns="http://www.w3.org/2000/svg">
<g clip-path="url(#clip0)">
<path fill-rule="evenodd" clip-rule="evenodd" d="M6.19044 11.875H21.1355L27.326 18.0162V21.375H22.5379V19.9838L19.1522 16.625H8.17372L4.78805 19.9838V29.8911L8.17372 33.2499H18.9128L22.5379 29.6536V27.3125H27.326V31.6212L20.8961 37.9999H6.19044L-1.42695e-05 31.8587V18.0162L6.19044 11.875Z" fill="black"/>
<path fill-rule="evenodd" clip-rule="evenodd" d="M32.114 13.0625H36.902V29.8912L40.2877 33.25H46.6835L50.0692 29.8912V13.0625H54.8573V31.8588L48.6668 38H38.3044L32.114 31.8588V13.0625Z" fill="black"/>
<path fill-rule="evenodd" clip-rule="evenodd" d="M67.0327 13.0625H72.8124V17.8125H69.016L65.6303 21.1713V38H60.8423V19.2037L67.0327 13.0625Z" fill="black"/>
<path fill-rule="evenodd" clip-rule="evenodd" d="M83.7909 13.0625H89.5706V17.8125H85.7741L82.3885 21.1713V38H77.6004V19.2037L83.7909 13.0625Z" fill="black"/>
<path fill-rule="evenodd" clip-rule="evenodd" d="M98.2612 13.0625H109.609L115.905 18.4166V23.75L109.521 28.5H96.7528V30.4613L100.032 33.2501H114.708V38.0001H98.2612L91.9647 32.646V18.4166L98.2612 13.0625ZM96.7528 23.75H107.925L111.117 21.375V20.6013L107.837 17.8125H100.032L96.7528 20.6013V23.75Z" fill="black"/>
<path fill-rule="evenodd" clip-rule="evenodd" d="M124.489 13.0625H136.049L142.239 19.2037V38H137.451V21.1713L134.066 17.8125H126.473L123.087 21.1713V38H118.299V19.2037L124.489 13.0625Z" fill="black"/>
<path fill-rule="evenodd" clip-rule="evenodd" d="M149.422 8.3125V0H154.21V8.3125H158.998V13.0625H154.21V29.8912L157.595 33.25H162.589V38H155.612L149.422 31.8588V13.0625H144.633V8.3125H149.422Z" fill="black"/>
</g>
<defs>
<clipPath id="clip0">
<rect width="164" height="38" fill="white"/>
</clipPath>
</defs>
</svg>
